<svg width="52" height="62" viewBox="0 0 52 62" fill="none" xmlns="http://www.w3.org/2000/svg">
<path d="M28.52 7.19202V12.152" stroke="#BEA257" stroke-width="2" stroke-miterlimit="10" stroke-linejoin="round"/>
<path d="M22.568 7.19202V12.152" stroke="#BEA257" stroke-width="2" stroke-miterlimit="10" stroke-linejoin="round"/>
<path d="M44.888 14.384L42.16 18.104" stroke="#BEA257" stroke-miterlimit="10" stroke-linejoin="round"/>
<path d="M40.672 11.408L38.192 15.128" stroke="#BEA257" stroke-miterlimit="10" stroke-linejoin="round"/>
<path d="M47.368 16.12L38.192 9.92004" stroke="#BEA257" stroke-miterlimit="10" stroke-linejoin="round"/>
<path d="M25.544 39.432C27.1876 39.432 28.52 38.0996 28.52 36.456C28.52 34.8124 27.1876 33.48 25.544 33.48C23.9004 33.48 22.568 34.8124 22.568 36.456C22.568 38.0996 23.9004 39.432 25.544 39.432Z" stroke="#BEA257" stroke-miterlimit="10" stroke-linejoin="round"/>
<path d="M25.544 60.76C38.9667 60.76 49.848 49.8787 49.848 36.456C49.848 23.0332 38.9667 12.152 25.544 12.152C12.1213 12.152 1.24 23.0332 1.24 36.456C1.24 49.8787 12.1213 60.76 25.544 60.76Z" stroke="#BEA257" stroke-width="2" stroke-miterlimit="10" stroke-linejoin="round"/>
<path d="M31.744 1.23999H19.096V7.19199H31.744V1.23999Z" stroke="#BEA257" stroke-width="2" stroke-miterlimit="10" stroke-linejoin="round"/>
<path d="M43.152 36.4559C43.152 46.1279 35.216 54.0639 25.544 54.0639C15.872 54.0639 7.936 46.1279 7.936 36.4559H23.064" stroke="#BEA257" stroke-miterlimit="10" stroke-linejoin="round"/>
<path d="M30.008 19.344C36.704 21.08 41.912 27.032 42.904 33.976" stroke="#BEA257" stroke-linecap="square" stroke-linejoin="round"/>
</svg>
