<svg width="64" height="64" viewBox="0 0 64 64" fill="none" xmlns="http://www.w3.org/2000/svg">
<circle cx="32" cy="32" r="32" fill="#EEEEEE"/>
<path d="M31.9443 35.1615V45.1894" stroke="#BEA257" stroke-width="1.3" stroke-miterlimit="10" stroke-linecap="round" stroke-linejoin="round"/>
<path d="M18.1283 45.1894C14.5629 41.6239 12.3345 36.7214 12.3345 31.2618C12.3345 25.8022 14.5629 20.8997 18.1283 17.3342" stroke="#BEA257" stroke-width="1.3" stroke-miterlimit="10" stroke-linecap="round" stroke-linejoin="round"/>
<path d="M21.8053 41.4011C19.2426 38.8384 17.5713 35.1616 17.5713 31.2618C17.5713 27.2507 19.2426 23.6852 21.8053 21.1226" stroke="#BEA257" stroke-width="1.3" stroke-miterlimit="10" stroke-linecap="round" stroke-linejoin="round"/>
<path d="M25.5935 37.7242C23.9222 36.0529 22.9194 33.8245 22.9194 31.2618C22.9194 28.6992 23.9222 26.4707 25.5935 24.7994" stroke="#BEA257" stroke-width="1.3" stroke-miterlimit="10" stroke-linecap="round" stroke-linejoin="round"/>
<path d="M45.8721 45.1894C49.4375 41.6239 51.6659 36.7214 51.6659 31.2618C51.6659 25.8022 49.4375 20.8997 45.8721 17.3342" stroke="#BEA257" stroke-width="1.3" stroke-miterlimit="10" stroke-linecap="round" stroke-linejoin="round"/>
<path d="M42.0835 41.4011C44.6462 38.8384 46.3175 35.1616 46.3175 31.2618C46.3175 27.2507 44.6462 23.6852 42.0835 21.1226" stroke="#BEA257" stroke-width="1.3" stroke-miterlimit="10" stroke-linecap="round" stroke-linejoin="round"/>
<path d="M38.4067 37.7242C40.078 36.0529 41.0808 33.8245 41.0808 31.2618C41.0808 28.6992 40.078 26.4707 38.4067 24.7994" stroke="#BEA257" stroke-width="1.3" stroke-miterlimit="10" stroke-linecap="round" stroke-linejoin="round"/>
<path d="M31.9446 35.1615C34.0984 35.1615 35.8444 33.4155 35.8444 31.2618C35.8444 29.108 34.0984 27.3621 31.9446 27.3621C29.7909 27.3621 28.0449 29.108 28.0449 31.2618C28.0449 33.4155 29.7909 35.1615 31.9446 35.1615Z" stroke="#BEA257" stroke-width="1.3" stroke-miterlimit="10" stroke-linecap="round" stroke-linejoin="round"/>
</svg>
