<svg width="64" height="64" viewBox="0 0 64 64" fill="none" xmlns="http://www.w3.org/2000/svg">
<circle cx="32" cy="32" r="32" fill="#EEEEEE"/>
<path d="M37.1656 22.6762L22.6372 37.2046L26.8103 41.3776L41.3386 26.8492L37.1656 22.6762Z" stroke="#BEA257" stroke-width="1.3" stroke-miterlimit="10" stroke-linecap="round" stroke-linejoin="round"/>
<path d="M30.907 49.0492C29.9234 50.0328 28.284 50.0328 27.1911 49.0492L15.06 36.8087C14.0764 35.8251 14.0764 34.1858 15.06 33.2022C16.0436 32.2186 17.6829 32.2186 18.6665 33.2022L30.907 45.4426C31.8906 46.4262 31.8906 48.0656 30.907 49.0492Z" stroke="#BEA257" stroke-width="1.3" stroke-miterlimit="10" stroke-linecap="round" stroke-linejoin="round"/>
<path d="M25.4424 50.9071C24.4588 51.8907 22.8195 51.8907 21.7266 50.9071L13.0927 42.2732C12.1091 41.2896 12.1091 39.6503 13.0927 38.6667C14.0763 37.6831 15.7156 37.6831 16.6992 38.6667L25.3331 47.3005C26.426 48.2841 26.426 49.9235 25.4424 50.9071Z" stroke="#BEA257" stroke-width="1.3" stroke-miterlimit="10" stroke-linecap="round" stroke-linejoin="round"/>
<path d="M49.0491 30.9071C50.0327 29.9235 50.0327 28.2841 49.0491 27.1912L36.8086 15.0601C35.825 14.0765 34.1857 14.0765 33.2021 15.0601C32.2185 16.0437 32.2185 17.683 33.2021 18.6667L45.4425 30.9071C46.4261 31.8907 48.0655 31.8907 49.0491 30.9071Z" stroke="#BEA257" stroke-width="1.3" stroke-miterlimit="10" stroke-linecap="round" stroke-linejoin="round"/>
<path d="M50.9069 25.4427C51.8905 24.4591 51.8905 22.8197 50.9069 21.7268L42.273 13.0929C41.2894 12.1093 39.65 12.1093 38.6664 13.0929C37.6828 14.0765 37.6828 15.7159 38.6664 16.6995L47.3003 25.3334C48.2839 26.4263 49.9232 26.4263 50.9069 25.4427Z" stroke="#BEA257" stroke-width="1.3" stroke-miterlimit="10" stroke-linecap="round" stroke-linejoin="round"/>
<path d="M50.3606 19.2131C49.8141 19.7595 48.9398 19.7595 48.3933 19.2131L44.7868 15.6065C44.2403 15.0601 44.2403 14.1858 44.7868 13.6393C45.3332 13.0929 46.2076 13.0929 46.754 13.6393L50.3606 17.2459C50.907 17.7923 50.907 18.6667 50.3606 19.2131Z" stroke="#BEA257" stroke-width="1.3" stroke-miterlimit="10" stroke-linecap="round" stroke-linejoin="round"/>
<path d="M19.2131 50.3607C18.6667 50.9071 17.7923 50.9071 17.2459 50.3607L13.6393 46.7541C13.0929 46.2077 13.0929 45.3334 13.6393 44.7869C14.1858 44.2405 15.0601 44.2405 15.6065 44.7869L19.2131 48.3935C19.7595 48.9399 19.7595 49.8142 19.2131 50.3607Z" stroke="#BEA257" stroke-width="1.3" stroke-miterlimit="10" stroke-linecap="round" stroke-linejoin="round"/>
</svg>
