<svg width="64" height="64" viewBox="0 0 64 64" fill="none" xmlns="http://www.w3.org/2000/svg">
<circle cx="32" cy="32" r="32" fill="#EEEEEE"/>
<path d="M31.9455 48.8965C31.5095 48.8965 22.6811 47.5886 17.4495 41.1581C12.1089 34.6186 12.3269 25.4633 12.3269 25.4633C12.3269 25.4633 14.9427 25.7902 18.1035 27.0981" stroke="#BEA257" stroke-width="1.3" stroke-miterlimit="10" stroke-linecap="round" stroke-linejoin="round"/>
<path d="M31.9454 48.8965C30.9644 48.3515 23.444 43.9919 20.6102 35.8175C17.8854 27.3161 20.9372 18.4878 20.9372 18.4878C20.9372 18.4878 23.444 19.9047 26.1688 22.6295" stroke="#BEA257" stroke-width="1.3" stroke-miterlimit="10" stroke-linecap="round" stroke-linejoin="round"/>
<path d="M31.9453 48.8965C32.7083 48.8965 41.1006 47.5886 46.4412 41.1581C51.7818 34.7276 51.5638 25.5723 51.5638 25.5723C51.5638 25.5723 49.057 25.8992 45.8963 27.0982" stroke="#BEA257" stroke-width="1.3" stroke-miterlimit="10" stroke-linecap="round" stroke-linejoin="round"/>
<path d="M31.9453 48.8965C32.9262 48.5696 40.4467 44.1009 43.2805 35.8175C46.1143 27.3161 43.0625 18.5968 43.0625 18.5968C43.0625 18.5968 40.5557 20.0137 37.7219 22.7385" stroke="#BEA257" stroke-width="1.3" stroke-miterlimit="10" stroke-linecap="round" stroke-linejoin="round"/>
<path d="M38.0489 32.1118C38.0489 41.3761 31.9453 48.8965 31.9453 48.8965C31.9453 48.8965 25.8418 41.3761 25.8418 32.1118C25.8418 22.8475 31.9453 15.327 31.9453 15.327C31.9453 15.327 38.0489 22.8475 38.0489 32.1118Z" stroke="#BEA257" stroke-width="1.3" stroke-miterlimit="10" stroke-linecap="round" stroke-linejoin="round"/>
</svg>
