<svg width="32" height="32" viewBox="0 0 32 32" fill="none" xmlns="http://www.w3.org/2000/svg">
<path d="M28.84 19.6666C28.84 20.8533 28.5067 21.9733 27.92 22.9333C26.8267 24.7733 24.8133 25.9999 22.5067 25.9999C20.2 25.9999 18.1867 24.7599 17.0933 22.9333C16.5067 21.9866 16.1733 20.8533 16.1733 19.6666C16.1733 16.1733 19.0133 13.3333 22.5067 13.3333C26 13.3333 28.84 16.1733 28.84 19.6666Z" stroke="#BEA257" stroke-width="1.5" stroke-miterlimit="10" stroke-linecap="round" stroke-linejoin="round"/>
<path d="M24.8801 19.6399H20.1467" stroke="#BEA257" stroke-width="1.5" stroke-miterlimit="10" stroke-linecap="round" stroke-linejoin="round"/>
<path d="M22.5067 17.3333V22.0666" stroke="#BEA257" stroke-width="1.5" stroke-miterlimit="10" stroke-linecap="round" stroke-linejoin="round"/>
<path d="M27.5867 5.36011V8.32007C27.5867 9.40007 26.9067 10.7468 26.24 11.4268L23.8933 13.4934C23.4533 13.3867 22.9867 13.3334 22.5067 13.3334C19.0133 13.3334 16.1733 16.1734 16.1733 19.6667C16.1733 20.8534 16.5067 21.9734 17.0933 22.9334C17.5867 23.7601 18.2667 24.4667 19.0933 24.9734V25.4268C19.0933 26.2401 18.56 27.3201 17.88 27.7201L16 28.9334C14.2533 30.0134 11.8267 28.8001 11.8267 26.6401V19.5068C11.8267 18.5601 11.28 17.3468 10.7467 16.6801L5.62666 11.2934C4.96 10.6134 4.41333 9.4001 4.41333 8.6001V5.49341C4.41333 3.88007 5.62666 2.66675 7.10666 2.66675H24.8933C26.3733 2.66675 27.5867 3.88011 27.5867 5.36011Z" stroke="#BEA257" stroke-width="1.5" stroke-miterlimit="10" stroke-linecap="round" stroke-linejoin="round"/>
</svg>
