<svg width="21" height="22" viewBox="0 0 21 22" fill="none" xmlns="http://www.w3.org/2000/svg">
<path d="M19.2297 13.1665C19.6577 13.4998 19.6577 14.1665 19.2297 14.4998L11.0135 20.4165C10.6712 20.6665 10.3288 20.6665 9.9865 20.4165L1.77029 14.4998C1.34236 14.1665 1.34236 13.4998 1.77029 13.1665" stroke="white" stroke-miterlimit="10" stroke-linecap="round" stroke-linejoin="round"/>
<path d="M1.77029 10.3333C1.34236 10.6666 1.34236 11.3333 1.77029 11.6666L2.54056 12.2499L9.9865 17.5833C10.3288 17.8333 10.6712 17.8333 11.0135 17.5833L18.4595 12.2499L19.2297 11.6666C19.6577 11.3333 19.6577 10.6666 19.2297 10.3333" stroke="white" stroke-miterlimit="10" stroke-linecap="round" stroke-linejoin="round"/>
<path d="M19.2297 7.49992L11.0135 1.58325C10.6712 1.33325 10.3288 1.33325 9.9865 1.58325L1.77029 7.49992C1.34236 7.83325 1.34236 8.49992 1.77029 8.83325L2.54056 9.41659L4.25227 10.6666L9.90092 14.7499C10.2433 14.9999 10.5856 14.9999 10.9279 14.7499L16.5766 10.6666L18.2883 9.41659L19.0586 8.83325C19.7433 8.49992 19.7433 7.83325 19.2297 7.49992Z" stroke="white" stroke-miterlimit="10" stroke-linecap="round" stroke-linejoin="round"/>
</svg>
