<svg width="21" height="21" viewBox="0 0 21 21" fill="none" xmlns="http://www.w3.org/2000/svg">
<path d="M3.84776 3.92344C-0.055474 7.82667 -0.055474 14.1623 3.84776 18.0656C7.75098 21.9688 14.0867 21.9688 17.9899 18.0656C21.8931 14.1623 21.8931 7.82667 17.9899 3.92344C14.0867 0.0202098 7.75098 0.0202098 3.84776 3.92344ZM14.1432 8.51963L14.1432 12.7623C14.1432 12.9744 14.0584 13.1583 13.924 13.2926C13.7897 13.427 13.6058 13.5118 13.3937 13.5118C12.9836 13.5118 12.6442 13.1724 12.6442 12.7623L12.6442 10.3298L8.97428 13.9997C8.68437 14.2896 8.20353 14.2896 7.91362 13.9997C7.62371 13.7098 7.62371 13.229 7.91362 12.9391L11.5835 9.26917L9.15106 9.26917C8.74093 9.26917 8.40152 8.92976 8.40152 8.51963C8.40152 8.10951 8.74093 7.7701 9.15106 7.7701L13.3937 7.7701C13.8038 7.7701 14.1432 8.10951 14.1432 8.51963Z" fill="#BEA257"/>
</svg>
