<svg width="24" height="24" viewBox="0 0 24 24" fill="none" xmlns="http://www.w3.org/2000/svg">
<g clip-path="url(#clip0_386_1396)">
<path d="M16.5 21.5H7.5C4.2 21.5 1.5 18.8 1.5 15.5V11.5H22.5V15.5C22.5 18.8 19.8 21.5 16.5 21.5Z" stroke="#838383" stroke-miterlimit="10" stroke-linecap="round"/>
<path d="M0.5 11.5H23.5" stroke="#838383" stroke-miterlimit="10" stroke-linecap="round"/>
<path d="M6.5 21.5L5.5 23.5" stroke="#838383" stroke-miterlimit="10" stroke-linecap="round"/>
<path d="M17.5 21.5L18.5 23.5" stroke="#838383" stroke-miterlimit="10" stroke-linecap="round"/>
<path d="M1.5 4.5V11.5" stroke="#838383" stroke-miterlimit="10" stroke-linecap="round"/>
<path d="M1.5 4.5V3C1.5 1.6 2.6 0.5 4 0.5C5.4 0.5 6.5 1.6 6.5 3V3.5" stroke="#838383" stroke-miterlimit="10" stroke-linecap="round"/>
<path d="M5.5 6.5V7.5" stroke="#838383" stroke-miterlimit="10" stroke-linecap="round"/>
<path d="M7.5 8.5V9.5" stroke="#838383" stroke-miterlimit="10" stroke-linecap="round"/>
<path d="M7.5 5.5V6.5" stroke="#838383" stroke-miterlimit="10" stroke-linecap="round"/>
</g>
<defs>
<clipPath id="clip0_386_1396">
<rect width="24" height="24" fill="white"/>
</clipPath>
</defs>
</svg>
