<svg width="24" height="24" viewBox="0 0 24 24" fill="none" xmlns="http://www.w3.org/2000/svg">
<g clip-path="url(#clip0_386_1338)">
<path d="M23.5 0.5H8.5V23.5H23.5V0.5Z" stroke="#838383" stroke-miterlimit="10" stroke-linecap="round" stroke-linejoin="round"/>
<path d="M8.5 6.5H0.5V23.5H8.5V6.5Z" stroke="#838383" stroke-miterlimit="10" stroke-linecap="round" stroke-linejoin="round"/>
<path d="M8.5 9.5H3.5V12.5H8.5V9.5Z" stroke="#838383" stroke-miterlimit="10" stroke-linecap="round" stroke-linejoin="round"/>
<path d="M8.5 15.5H3.5V18.5H8.5V15.5Z" stroke="#838383" stroke-miterlimit="10" stroke-linecap="round" stroke-linejoin="round"/>
<path d="M18.5 23.5H13.5V20.5C13.5 19.4 14.4 18.5 15.5 18.5H16.5C17.6 18.5 18.5 19.4 18.5 20.5V23.5Z" stroke="#838383" stroke-miterlimit="10" stroke-linecap="round" stroke-linejoin="round"/>
<path d="M11.5 3.5H12.5" stroke="#838383" stroke-miterlimit="10" stroke-linecap="round" stroke-linejoin="round"/>
<path d="M15.5 3.5H16.5" stroke="#838383" stroke-miterlimit="10" stroke-linecap="round" stroke-linejoin="round"/>
<path d="M19.5 3.5H20.5" stroke="#838383" stroke-miterlimit="10" stroke-linecap="round" stroke-linejoin="round"/>
<path d="M11.5 6.5H12.5" stroke="#838383" stroke-miterlimit="10" stroke-linecap="round" stroke-linejoin="round"/>
<path d="M15.5 6.5H16.5" stroke="#838383" stroke-miterlimit="10" stroke-linecap="round" stroke-linejoin="round"/>
<path d="M19.5 6.5H20.5" stroke="#838383" stroke-miterlimit="10" stroke-linecap="round" stroke-linejoin="round"/>
<path d="M11.5 9.5H12.5" stroke="#838383" stroke-miterlimit="10" stroke-linecap="round" stroke-linejoin="round"/>
<path d="M15.5 9.5H16.5" stroke="#838383" stroke-miterlimit="10" stroke-linecap="round" stroke-linejoin="round"/>
<path d="M19.5 9.5H20.5" stroke="#838383" stroke-miterlimit="10" stroke-linecap="round" stroke-linejoin="round"/>
<path d="M11.5 12.5H12.5" stroke="#838383" stroke-miterlimit="10" stroke-linecap="round" stroke-linejoin="round"/>
<path d="M15.5 12.5H16.5" stroke="#838383" stroke-miterlimit="10" stroke-linecap="round" stroke-linejoin="round"/>
<path d="M19.5 12.5H20.5" stroke="#838383" stroke-miterlimit="10" stroke-linecap="round" stroke-linejoin="round"/>
<path d="M11.5 15.5H12.5" stroke="#838383" stroke-miterlimit="10" stroke-linecap="round" stroke-linejoin="round"/>
<path d="M15.5 15.5H16.5" stroke="#838383" stroke-miterlimit="10" stroke-linecap="round" stroke-linejoin="round"/>
<path d="M19.5 15.5H20.5" stroke="#838383" stroke-miterlimit="10" stroke-linecap="round" stroke-linejoin="round"/>
</g>
<defs>
<clipPath id="clip0_386_1338">
<rect width="24" height="24" fill="white"/>
</clipPath>
</defs>
</svg>
