<svg width="210" height="54" viewBox="0 0 210 54" fill="none" xmlns="http://www.w3.org/2000/svg">
<path d="M71.7773 17.6807H77.9346C80.6514 17.6807 82.7715 18.4889 84.2949 20.1055C85.8184 21.7135 86.5801 23.9564 86.5801 26.834C86.5801 29.7201 85.8184 31.9714 84.2949 33.5879C82.7799 35.196 80.6598 36 77.9346 36H71.7773V17.6807ZM74.0625 19.7373V33.9434H77.7822C79.8558 33.9434 81.4512 33.334 82.5684 32.1152C83.6855 30.888 84.2441 29.1361 84.2441 26.8594C84.2441 24.5658 83.6855 22.8053 82.5684 21.5781C81.4596 20.3509 79.8643 19.7373 77.7822 19.7373H74.0625Z" fill="#BEA257"/>
<path d="M94.2155 34.3496C95.2566 34.3496 96.1283 34.028 96.8308 33.3848C97.5417 32.7331 97.8972 31.9333 97.8972 30.9854V29.9062L94.3679 30.1221C93.4792 30.1813 92.7894 30.3971 92.2986 30.7695C91.8161 31.1419 91.5749 31.6413 91.5749 32.2676C91.5749 32.8939 91.8161 33.3975 92.2986 33.7783C92.781 34.1592 93.42 34.3496 94.2155 34.3496ZM93.7204 36.2285C92.4086 36.2285 91.3464 35.8646 90.5339 35.1367C89.7299 34.4089 89.3279 33.4525 89.3279 32.2676C89.3279 31.1335 89.7426 30.2279 90.572 29.5508C91.4099 28.8737 92.5905 28.4928 94.114 28.4082L97.8972 28.1924V27.0879C97.8972 26.2839 97.6433 25.6533 97.1355 25.1963C96.6277 24.7393 95.9167 24.5107 95.0027 24.5107C94.1648 24.5107 93.4835 24.6969 92.9587 25.0693C92.434 25.4333 92.0997 25.9453 91.9558 26.6055H89.823C89.8991 25.429 90.407 24.4642 91.3464 23.7109C92.2943 22.9492 93.53 22.5684 95.0534 22.5684C96.6023 22.5684 97.8295 22.9577 98.7351 23.7363C99.6491 24.515 100.106 25.5602 100.106 26.8721V36H98.0114V33.7275H97.9607C97.5629 34.4808 96.9789 35.0859 96.2087 35.543C95.4385 36 94.6091 36.2285 93.7204 36.2285Z" fill="#BEA257"/>
<path d="M103.692 36V22.7969H105.774V24.9551H105.825C106.045 24.2188 106.438 23.639 107.005 23.2158C107.581 22.7842 108.254 22.5684 109.024 22.5684C109.202 22.5684 109.498 22.598 109.913 22.6572V24.8027C109.676 24.7181 109.282 24.6758 108.732 24.6758C107.877 24.6758 107.192 24.9593 106.675 25.5264C106.159 26.0934 105.901 26.8424 105.901 27.7734V36H103.692Z" fill="#BEA257"/>
<path d="M120.392 36H118.132L111.378 17.6807H113.778L119.224 33.2197H119.3L124.746 17.6807H127.146L120.392 36Z" fill="#BEA257"/>
<path d="M132.128 34.3496C133.169 34.3496 134.041 34.028 134.743 33.3848C135.454 32.7331 135.809 31.9333 135.809 30.9854V29.9062L132.28 30.1221C131.391 30.1813 130.702 30.3971 130.211 30.7695C129.728 31.1419 129.487 31.6413 129.487 32.2676C129.487 32.8939 129.728 33.3975 130.211 33.7783C130.693 34.1592 131.332 34.3496 132.128 34.3496ZM131.633 36.2285C130.321 36.2285 129.259 35.8646 128.446 35.1367C127.642 34.4089 127.24 33.4525 127.24 32.2676C127.24 31.1335 127.655 30.2279 128.484 29.5508C129.322 28.8737 130.503 28.4928 132.026 28.4082L135.809 28.1924V27.0879C135.809 26.2839 135.556 25.6533 135.048 25.1963C134.54 24.7393 133.829 24.5107 132.915 24.5107C132.077 24.5107 131.396 24.6969 130.871 25.0693C130.346 25.4333 130.012 25.9453 129.868 26.6055H127.735C127.811 25.429 128.319 24.4642 129.259 23.7109C130.207 22.9492 131.442 22.5684 132.966 22.5684C134.515 22.5684 135.742 22.9577 136.647 23.7363C137.561 24.515 138.018 25.5602 138.018 26.8721V36H135.924V33.7275H135.873C135.475 34.4808 134.891 35.0859 134.121 35.543C133.351 36 132.521 36.2285 131.633 36.2285Z" fill="#BEA257"/>
<path d="M152.573 27.126H150.415C150.245 26.3643 149.869 25.738 149.285 25.2471C148.709 24.7562 147.96 24.5107 147.038 24.5107C145.887 24.5107 144.96 24.9551 144.257 25.8438C143.555 26.724 143.204 27.9089 143.204 29.3984C143.204 30.9134 143.555 32.1068 144.257 32.9785C144.968 33.8503 145.904 34.2861 147.063 34.2861C147.952 34.2861 148.684 34.0661 149.259 33.626C149.843 33.1774 150.233 32.5511 150.427 31.7471H152.598C152.429 33.0674 151.832 34.1465 150.808 34.9844C149.793 35.8138 148.54 36.2285 147.05 36.2285C145.205 36.2285 143.728 35.6191 142.62 34.4004C141.511 33.1732 140.957 31.5059 140.957 29.3984C140.957 27.3249 141.511 25.6702 142.62 24.4346C143.728 23.1904 145.197 22.5684 147.025 22.5684C148.599 22.5684 149.877 23.0127 150.859 23.9014C151.849 24.79 152.421 25.8649 152.573 27.126Z" fill="#BEA257"/>
<path d="M159.764 34.3496C160.805 34.3496 161.677 34.028 162.379 33.3848C163.09 32.7331 163.446 31.9333 163.446 30.9854V29.9062L159.916 30.1221C159.028 30.1813 158.338 30.3971 157.847 30.7695C157.365 31.1419 157.123 31.6413 157.123 32.2676C157.123 32.8939 157.365 33.3975 157.847 33.7783C158.329 34.1592 158.968 34.3496 159.764 34.3496ZM159.269 36.2285C157.957 36.2285 156.895 35.8646 156.082 35.1367C155.278 34.4089 154.876 33.4525 154.876 32.2676C154.876 31.1335 155.291 30.2279 156.12 29.5508C156.958 28.8737 158.139 28.4928 159.662 28.4082L163.446 28.1924V27.0879C163.446 26.2839 163.192 25.6533 162.684 25.1963C162.176 24.7393 161.465 24.5107 160.551 24.5107C159.713 24.5107 159.032 24.6969 158.507 25.0693C157.982 25.4333 157.648 25.9453 157.504 26.6055H155.371C155.448 25.429 155.955 24.4642 156.895 23.7109C157.843 22.9492 159.078 22.5684 160.602 22.5684C162.151 22.5684 163.378 22.9577 164.284 23.7363C165.198 24.515 165.655 25.5602 165.655 26.8721V36H163.56V33.7275H163.509C163.111 34.4808 162.527 35.0859 161.757 35.543C160.987 36 160.158 36.2285 159.269 36.2285Z" fill="#BEA257"/>
<path d="M169.951 19.6104H172.16V22.7969H174.725V24.6123H172.16V32.458C172.16 33.0589 172.291 33.5033 172.554 33.791C172.816 34.0703 173.231 34.21 173.798 34.21C174.153 34.21 174.458 34.1888 174.712 34.1465V36C174.424 36.0677 173.959 36.1016 173.315 36.1016C172.105 36.1016 171.242 35.8307 170.726 35.2891C170.209 34.7474 169.951 33.8418 169.951 32.5723V24.6123H167.983V22.7969H169.951V19.6104Z" fill="#BEA257"/>
<path d="M177.98 36V22.7969H180.189V36H177.98ZM179.085 20.5752C178.712 20.5752 178.391 20.4398 178.12 20.1689C177.849 19.8981 177.714 19.5765 177.714 19.2041C177.714 18.8232 177.849 18.5016 178.12 18.2393C178.391 17.9684 178.712 17.833 179.085 17.833C179.466 17.833 179.791 17.9684 180.062 18.2393C180.333 18.5016 180.469 18.8232 180.469 19.2041C180.469 19.5765 180.333 19.8981 180.062 20.1689C179.791 20.4398 179.466 20.5752 179.085 20.5752Z" fill="#BEA257"/>
<path d="M189.424 36.2285C187.579 36.2285 186.098 35.6149 184.981 34.3877C183.864 33.152 183.305 31.4889 183.305 29.3984C183.305 27.3079 183.864 25.6491 184.981 24.4219C186.098 23.1862 187.579 22.5684 189.424 22.5684C191.261 22.5684 192.738 23.1862 193.855 24.4219C194.972 25.6491 195.531 27.3079 195.531 29.3984C195.531 31.4805 194.972 33.1393 193.855 34.375C192.738 35.6107 191.261 36.2285 189.424 36.2285ZM186.593 32.9912C187.296 33.8545 188.239 34.2861 189.424 34.2861C190.609 34.2861 191.549 33.8587 192.243 33.0039C192.937 32.1406 193.284 30.9388 193.284 29.3984C193.284 27.8581 192.937 26.6605 192.243 25.8057C191.549 24.9424 190.609 24.5107 189.424 24.5107C188.239 24.5107 187.296 24.9424 186.593 25.8057C185.899 26.6689 185.552 27.8665 185.552 29.3984C185.552 30.9303 185.899 32.1279 186.593 32.9912Z" fill="#BEA257"/>
<path d="M198.545 36V22.7969H200.627V24.9043H200.678C201.059 24.168 201.605 23.5967 202.316 23.1904C203.027 22.7757 203.877 22.5684 204.867 22.5684C206.306 22.5684 207.428 23.0042 208.232 23.876C209.036 24.7393 209.438 25.9242 209.438 27.4307V36H207.229V27.8242C207.229 26.7493 206.975 25.9326 206.467 25.374C205.959 24.807 205.202 24.5234 204.195 24.5234C203.154 24.5234 202.32 24.862 201.694 25.5391C201.067 26.2161 200.754 27.1133 200.754 28.2305V36H198.545Z" fill="#BEA257"/>
<g clip-path="url(#clip0_386_2147)">
<path d="M46.6847 8.44083C41.9764 3.43491 35.5921 0.452663 28.7025 0H28.2769V54L28.7025 53.9734C35.5921 53.5473 41.9764 50.5651 46.6847 45.5325C51.3931 40.5266 54 33.9231 54 27C54 20.0769 51.3931 13.4734 46.6847 8.44083ZM38.8108 42.7633L38.4384 43.003L37.3478 28.3314L33.8365 26.8136L32.932 15.6302L30.8305 14.7515L30.0857 1.91716C40.9921 3.43491 49.1852 12.8876 49.1852 23.9379C49.2118 31.6331 45.3281 38.6627 38.8108 42.7633Z" fill="#BEA257"/>
<path d="M7.31527 8.46745C2.6069 13.4734 0 20.0503 0 27C0 33.9497 2.6069 40.5266 7.31527 45.5325C12.0236 50.5385 18.4079 53.5207 25.2975 53.9734L25.7232 54V0L25.2975 0.0266272C18.4079 0.452663 11.997 3.43491 7.31527 8.46745ZM4.78818 23.9379C4.78818 22.5533 4.92118 21.1953 5.16059 19.8905C6.38424 13.3136 10.5606 7.64201 16.3064 4.47337C16.599 4.31361 16.8916 4.15385 17.1842 4.02071C19.2591 2.98225 21.5202 2.28994 23.8877 1.94379L23.3291 12.1953L21.0946 13.4467L20.4828 24.5503L16.8118 26.4408L15.5882 43.003L15.2158 42.7633C8.67192 38.6627 4.78818 31.6331 4.78818 23.9379Z" fill="#BEA257"/>
</g>
<defs>
<clipPath id="clip0_386_2147">
<rect width="54" height="54" fill="white"/>
</clipPath>
</defs>
</svg>
