<svg width="33" height="33" viewBox="0 0 33 33" fill="none" xmlns="http://www.w3.org/2000/svg">
<g clip-path="url(#clip0_386_2313)">
<path d="M28.0861 5.07809C25.2535 2.06648 21.4127 0.272327 17.2678 0H17.0117V32.487L17.2678 32.471C21.4127 32.2147 25.2535 30.4205 28.0861 27.3929C30.9187 24.3813 32.487 20.4085 32.487 16.2435C32.487 12.0785 30.9187 8.10573 28.0861 5.07809ZM23.3491 25.7269L23.125 25.871L22.4689 17.0445L20.3564 16.1314L19.8123 9.40329L18.548 8.87465L18.1 1.15338C24.6614 2.06648 29.5904 7.75331 29.5904 14.4013C29.6064 19.0308 27.2699 23.2599 23.3491 25.7269Z" fill="#BEA257"/>
<path d="M4.40095 5.09411C1.56834 8.10573 0 12.0625 0 16.2435C0 20.4245 1.56834 24.3813 4.40095 27.3929C7.23356 30.4045 11.0744 32.1986 15.2193 32.471L15.4753 32.487V0L15.2193 0.0160192C11.0744 0.272327 7.21755 2.06648 4.40095 5.09411ZM2.88062 14.4013C2.88062 13.5683 2.96064 12.7513 3.10467 11.9664C3.84083 8.00961 6.35337 4.59752 9.81011 2.69123C9.98615 2.59511 10.1622 2.499 10.3382 2.4189C11.5865 1.79415 12.9468 1.37765 14.3711 1.1694L14.035 7.3368L12.6907 8.08971L12.3226 14.7697L10.1142 15.9071L9.37802 25.871L9.15397 25.7269C5.21712 23.2599 2.88062 19.0308 2.88062 14.4013Z" fill="#BEA257"/>
</g>
<defs>
<clipPath id="clip0_386_2313">
<rect width="32.487" height="32.487" fill="white"/>
</clipPath>
</defs>
</svg>
