<svg width="54" height="54" viewBox="0 0 54 54" fill="none" xmlns="http://www.w3.org/2000/svg">
<g clip-path="url(#clip0_386_1127)">
<path d="M46.6847 8.44083C41.9764 3.43491 35.5921 0.452663 28.7025 0H28.2769V54L28.7025 53.9734C35.5921 53.5473 41.9764 50.5651 46.6847 45.5325C51.3931 40.5266 54 33.9231 54 27C54 20.0769 51.3931 13.4734 46.6847 8.44083ZM38.8108 42.7633L38.4384 43.003L37.3478 28.3314L33.8365 26.8136L32.932 15.6302L30.8305 14.7515L30.0857 1.91716C40.9921 3.43491 49.1852 12.8876 49.1852 23.9379C49.2118 31.6331 45.3281 38.6627 38.8108 42.7633Z" fill="#BEA257"/>
<path d="M7.31527 8.46745C2.6069 13.4734 0 20.0503 0 27C0 33.9497 2.6069 40.5266 7.31527 45.5325C12.0236 50.5385 18.4079 53.5207 25.2975 53.9734L25.7232 54V0L25.2975 0.0266272C18.4079 0.452663 11.997 3.43491 7.31527 8.46745ZM4.78818 23.9379C4.78818 22.5533 4.92118 21.1953 5.16059 19.8905C6.38424 13.3136 10.5606 7.64201 16.3064 4.47337C16.599 4.31361 16.8916 4.15385 17.1842 4.02071C19.2591 2.98225 21.5202 2.28994 23.8877 1.94379L23.3291 12.1953L21.0946 13.4467L20.4828 24.5503L16.8118 26.4408L15.5882 43.003L15.2158 42.7633C8.67192 38.6627 4.78818 31.6331 4.78818 23.9379Z" fill="#BEA257"/>
</g>
<defs>
<clipPath id="clip0_386_1127">
<rect width="54" height="54" fill="white"/>
</clipPath>
</defs>
</svg>
