<svg width="41" height="41" viewBox="0 0 41 41" fill="none" xmlns="http://www.w3.org/2000/svg">
<path d="M20.6504 37.3781C27.5337 37.3781 33.1504 31.7615 33.1504 24.8781V16.5448C33.1504 9.66147 27.5337 4.0448 20.6504 4.0448C13.767 4.0448 8.15036 9.66147 8.15036 16.5448V24.8781C8.15036 31.7615 13.767 37.3781 20.6504 37.3781Z" stroke="white" stroke-width="1.5" stroke-linecap="round" stroke-linejoin="round"/>
<path d="M20.6504 19.0448C19.267 19.0448 18.1504 17.9281 18.1504 16.5448V13.2114C18.1504 11.8281 19.267 10.7114 20.6504 10.7114C22.017 10.7114 23.1504 11.8281 23.1504 13.2114V16.5448C23.1504 17.9281 22.017 19.0448 20.6504 19.0448Z" stroke="white" stroke-width="1.5" stroke-linecap="round" stroke-linejoin="round"/>
<path d="M20.6504 10.7115V4.0448" stroke="white" stroke-width="1.5" stroke-linecap="round" stroke-linejoin="round"/>
</svg>
