<svg width="24" height="24" viewBox="0 0 24 24" fill="none" xmlns="http://www.w3.org/2000/svg">
<path d="M0 24.0002L1.69627 17.8406C0.647564 16.0326 0.0974211 13.985 0.103152 11.8919C0.103152 5.33294 5.46704 0.000244141 12.0516 0.000244141C15.2493 0.000244141 18.2521 1.23789 20.5043 3.48504C22.7622 5.73218 24.0057 8.72078 24 11.8976C24 18.4565 18.6361 23.7892 12.0458 23.7892H12.0401C10.0401 23.7892 8.07449 23.2873 6.32664 22.3406L0 24.0002ZM6.63037 20.1904L6.9914 20.4071C8.51575 21.3082 10.2636 21.7816 12.0458 21.7873H12.0516C17.5243 21.7873 21.9828 17.3558 21.9828 11.9033C21.9828 9.2626 20.9513 6.78161 19.0773 4.91089C17.2034 3.04017 14.7049 2.01355 12.0516 2.01355C6.57879 2.00785 2.12034 6.43941 2.12034 11.8919C2.12034 13.7569 2.64183 15.5763 3.63897 17.1504L3.87392 17.5269L2.87106 21.1714L6.63037 20.1904Z" fill="#1D1D1F"/>
<path d="M0.418274 23.5838L2.05724 17.6351C1.04292 15.8956 0.509964 13.9165 0.509964 11.8975C0.515695 5.5667 5.69048 0.416504 12.0515 0.416504C15.1403 0.416504 18.0343 1.61422 20.212 3.78152C22.3896 5.94882 23.5873 8.83476 23.5873 11.9032C23.5873 18.234 18.4068 23.3842 12.0515 23.3842H12.0458C10.1145 23.3842 8.21769 22.8994 6.53288 21.9869L0.418274 23.5838Z" fill="#C4C4C4"/>
<path d="M0 24.0002L1.69627 17.8406C0.647564 16.0326 0.0974211 13.985 0.103152 11.8919C0.103152 5.33294 5.46704 0.000244141 12.0516 0.000244141C15.2493 0.000244141 18.2521 1.23789 20.5043 3.48504C22.7622 5.73218 24.0057 8.72078 24 11.8976C24 18.4565 18.6361 23.7892 12.0458 23.7892H12.0401C10.0401 23.7892 8.07449 23.2873 6.32664 22.3406L0 24.0002ZM6.63037 20.1904L6.9914 20.4071C8.51575 21.3082 10.2636 21.7816 12.0458 21.7873H12.0516C17.5243 21.7873 21.9828 17.3558 21.9828 11.9033C21.9828 9.2626 20.9513 6.78161 19.0773 4.91089C17.2034 3.04017 14.7049 2.01355 12.0516 2.01355C6.57879 2.00785 2.12034 6.43941 2.12034 11.8919C2.12034 13.7569 2.64183 15.5763 3.63897 17.1504L3.87392 17.5269L2.87106 21.1714L6.63037 20.1904Z" fill="#C4C4C4"/>
<path fill-rule="evenodd" clip-rule="evenodd" d="M9.06582 6.91843C8.84232 6.42223 8.60737 6.41082 8.39533 6.40512C8.22341 6.39941 8.02284 6.39941 7.82227 6.39941C7.62169 6.39941 7.30078 6.47356 7.02571 6.77014C6.75063 7.06671 5.98273 7.78535 5.98273 9.25113C5.98273 10.7112 7.05436 12.1257 7.20336 12.3253C7.35235 12.5249 9.27212 15.6218 12.3036 16.8139C14.8251 17.8063 15.3409 17.6066 15.8853 17.5553C16.4297 17.504 17.6503 16.8367 17.9025 16.1409C18.1489 15.445 18.1489 14.8519 18.0744 14.7264C17.9999 14.6009 17.7993 14.5268 17.5013 14.3785C17.2033 14.2302 15.7363 13.5116 15.4612 13.4089C15.1862 13.312 14.9856 13.2606 14.7907 13.5572C14.5902 13.8538 14.0171 14.5211 13.8452 14.7207C13.6733 14.9203 13.4956 14.9431 13.1976 14.7949C12.8996 14.6466 11.9369 14.3329 10.7965 13.3177C9.90822 12.5306 9.30651 11.5553 9.13459 11.2587C8.96267 10.9622 9.11739 10.8025 9.26639 10.6542C9.3982 10.523 9.56439 10.3063 9.71338 10.1352C9.86238 9.96405 9.91396 9.83858 10.0114 9.63896C10.1088 9.43934 10.063 9.26824 9.98845 9.11995C9.91396 8.97736 9.32943 7.50588 9.06582 6.91843Z" fill="white"/>
</svg>
