<svg width="22" height="22" viewBox="0 0 22 22" fill="none" xmlns="http://www.w3.org/2000/svg">
<path d="M3.64558 14.1973C4.22308 14.1836 4.95 14.1497 5.40925 14.069C5.90608 13.981 6.50375 13.8105 6.9245 13.6794C7.2545 13.5768 7.61383 13.6675 7.85858 13.9113L9.89083 15.9317C11.2952 15.1919 12.4199 14.3303 13.3723 13.3723C14.3303 12.4199 15.1919 11.2952 15.9317 9.89083L13.9113 7.85767C13.6675 7.61292 13.5768 7.25358 13.6794 6.92358C13.8096 6.50375 13.981 5.90608 14.0681 5.40925C14.1497 4.95 14.1827 4.22308 14.1973 3.64558C14.2092 3.146 14.6162 2.75 15.1158 2.75H18.3333C18.7348 2.75 19.25 3.05067 19.25 3.66667C19.25 7.82742 17.5633 11.8012 14.6978 14.6978C11.8012 17.5633 7.82742 19.25 3.66667 19.25C3.05067 19.25 2.75 18.7348 2.75 18.3333V15.1158C2.75 14.6163 3.146 14.2093 3.64558 14.1973Z" fill="#BEA257"/>
</svg>
