<svg width="28" height="28" viewBox="0 0 28 28" fill="none" xmlns="http://www.w3.org/2000/svg">
<path d="M4.63983 18.0693C5.37483 18.0518 6.3 18.0087 6.8845 17.906C7.51683 17.794 8.2775 17.577 8.813 17.4102C9.233 17.2795 9.69033 17.395 10.0018 17.7053L12.5883 20.2767C14.3757 19.3352 15.8072 18.2385 17.0193 17.0193C18.2385 15.8072 19.3352 14.3757 20.2767 12.5883L17.7053 10.0007C17.395 9.68917 17.2795 9.23183 17.4102 8.81183C17.5758 8.2775 17.794 7.51683 17.9048 6.8845C18.0087 6.3 18.0507 5.37483 18.0693 4.63983C18.0845 4.004 18.6025 3.5 19.2383 3.5H23.3333C23.8443 3.5 24.5 3.88267 24.5 4.66667C24.5 9.96217 22.3533 15.0197 18.7063 18.7063C15.0197 22.3533 9.96217 24.5 4.66667 24.5C3.88267 24.5 3.5 23.8443 3.5 23.3333V19.2383C3.5 18.6025 4.004 18.0845 4.63983 18.0693Z" fill="#BEA257"/>
</svg>
